<?xml version="1.0" encoding="UTF-8" standalone="no"?>
<!-- Generator: Adobe Illustrator 18.0.0, SVG Export Plug-In . SVG Version: 6.00 Build 0)  -->

<svg
   xmlns:dc="http://purl.org/dc/elements/1.1/"
   xmlns:cc="http://creativecommons.org/ns#"
   xmlns:rdf="http://www.w3.org/1999/02/22-rdf-syntax-ns#"
   xmlns:svg="http://www.w3.org/2000/svg"
   xmlns="http://www.w3.org/2000/svg"
   xmlns:sodipodi="http://sodipodi.sourceforge.net/DTD/sodipodi-0.dtd"
   xmlns:inkscape="http://www.inkscape.org/namespaces/inkscape"
   version="1.1"
   id="Layer_1"
   x="0px"
   y="0px"
   viewBox="0 0 42 42"
   enable-background="new 0 0 42 42"
   xml:space="preserve"
   inkscape:version="0.91 r13725"
   sodipodi:docname="SBL.svg"><metadata
     id="metadata43"><rdf:RDF><cc:Work
         rdf:about=""><dc:format>image/svg+xml</dc:format><dc:type
           rdf:resource="http://purl.org/dc/dcmitype/StillImage" /><dc:title></dc:title></cc:Work></rdf:RDF></metadata><defs
     id="defs41" /><sodipodi:namedview
     pagecolor="#ffffff"
     bordercolor="#666666"
     borderopacity="1"
     objecttolerance="10"
     gridtolerance="10"
     guidetolerance="10"
     inkscape:pageopacity="0"
     inkscape:pageshadow="2"
     inkscape:window-width="1600"
     inkscape:window-height="837"
     id="namedview39"
     showgrid="false"
     inkscape:zoom="5.6190476"
     inkscape:cx="61.023736"
     inkscape:cy="21"
     inkscape:window-x="-8"
     inkscape:window-y="-8"
     inkscape:window-maximized="1"
     inkscape:current-layer="g3" /><g
     id="g3"><path
       fill="#FFFFFF"
       d="M38.5,31.3v4.4v0l-7,3.5l-7-3.5v-4.1l-2.2-1.1l2.2-3l3.8-1.6l0,0.1l0.4-0.2l-0.2-0.2l0.7-0.7l1.7,1.7v0   v-1.7c0-2.3-0.7-3-2.9-3v-1c2.7,0,3.9,1.3,3.9,4.1v1.7l1.6-1.6l0.7,0.7l-0.1,0.1l0.3,0.1l0-0.1l4,1.7l1.9,2.8L38.5,31.3z"
       id="path21" /><polygon
       fill="#FFEBCD"
       points="33.1,34.2 31.6,31.8 31.6,38.1 37.5,35.1 37.5,31.8  "
       id="polygon23" /><polygon
       fill="#FFEBCD"
       points="29.3,33 30.7,31.2 25.1,28.3 23.7,30.1  "
       id="polygon25" /><polygon
       fill="#FFEBCD"
       points="31.1,32.1 29.6,34.2 25.4,32.1 25.4,35.1 31.1,38  "
       id="polygon27" /><polygon
       fill="#FFEBCD"
       points="26.1,27.8 31.5,30.5 36.8,27.8 34.1,26.6 34.4,25.8 34.1,25.7 31.4,28.5 28.7,25.8 28.3,25.9    28.7,26.7  "
       id="polygon29" /><polygon
       fill="#FFEBCD"
       points="37.8,28.3 32.2,31.2 33.4,33 38.9,29.9  "
       id="polygon31" /><polygon
       fill="#FFEBCD"
       points="38.4,35.7 31.5,39.2 24.5,35.7 24.5,31.6 24.5,31.6 24.5,35.7 31.5,39.2 38.5,35.7 38.5,35.7    38.5,31.3 38.4,31.3  "
       id="polygon33" /><path
       fill="#3D6480"
       d="M38.4,27.4l-4-1.7l0,0.1l-0.3,0.8l2.7,1.1l-5.3,2.7l-5.4-2.7l2.6-1.1l-0.3-0.8l0-0.1l-3.8,1.6l-2.2,3   l2.2,1.1l0,0v4.1l7,3.5l7-3.5v-4.4l0,0l1.8-1L38.4,27.4z M23.7,30.1l1.4-1.8l5.6,2.8L29.3,33L23.7,30.1z M25.4,35.1v-3l4.1,2.2   l1.5-2.1V38L25.4,35.1z M37.5,35.1l-5.9,3v-6.3l1.6,2.4l4.3-2.4V35.1z M33.4,33l-1.2-1.8l5.6-2.9l1.1,1.7L33.4,33z"
       id="path35" /><path
       fill="#0CB20F"
       d="M34.1,25.7L34.1,25.7l-0.6-0.8l-1.6,1.6v-1.7c0-2.8-1.2-4.1-3.9-4.1v1c2.2,0,2.9,0.8,2.9,3v1.7v0l-1.7-1.7   l-0.7,0.7l0.2,0.2l2.7,2.7L34.1,25.7z"
       id="path37" /><text
       xml:space="preserve"
       style="font-style:normal;font-weight:normal;font-size:40px;line-height:125%;font-family:sans-serif;letter-spacing:0px;word-spacing:0px;fill:#3d6380;fill-opacity:1;stroke:none;stroke-width:1px;stroke-linecap:butt;stroke-linejoin:miter;stroke-opacity:1"
       x="1.6016947"
       y="15.48305"
       id="text4171"
       sodipodi:linespacing="125%"><tspan
         sodipodi:role="line"
         id="tspan4173"
         x="1.6016947"
         y="15.48305"
         style="font-style:normal;font-variant:normal;font-weight:normal;font-stretch:normal;font-size:8.75px;font-family:'Segoe UI Emoji';-inkscape-font-specification:'Segoe UI Emoji';fill:#3d6380;fill-opacity:1">Snowflake</tspan></text>
</g></svg>